<svg xmlns="http://www.w3.org/2000/svg" version="1.1" xmlns:xlink="http://www.w3.org/1999/xlink" width="1000" height="1000"><g clip-path="url(#SvgjsClipPath1142)"><rect width="1000" height="1000" fill="#000000"></rect><g transform="matrix(3.7383177570093458,0,0,3.7383177570093458,100,408.41121495327104)"><svg xmlns="http://www.w3.org/2000/svg" version="1.1" xmlns:xlink="http://www.w3.org/1999/xlink" width="214" height="49"><svg width="214" height="49" viewBox="0 0 214 49" fill="none" xmlns="http://www.w3.org/2000/svg">
<mask id="mask0_19_1244" style="mask-type:luminance" maskUnits="userSpaceOnUse" x="0" y="10" width="25" height="39">
<path d="M0 10.2961H24.3135V48.3485H0V10.2961Z" fill="white"></path>
</mask>
<g mask="url(#mask0_19_1244)">
<path fill-rule="evenodd" clip-rule="evenodd" d="M15.685 33.9968C15.685 32.6754 15.9676 31.5769 16.5168 30.7173H11.0006V37.7459C11.0006 40.5995 11.7767 42.7606 13.2413 44.1934C14.7258 45.6461 16.9745 46.3943 19.8679 46.3943C20.0709 46.3943 20.1983 46.3943 20.2381 46.3943C20.3137 46.3943 20.4172 46.3864 20.5445 46.3784C20.5803 46.3704 20.6281 46.3704 20.6679 46.3704H22.2081V42.0323H20.6679C19.0879 42.0323 17.8461 41.5428 16.9745 40.5995C16.1268 39.6801 15.685 38.3747 15.685 36.723V33.9968ZM11.0006 22.3315H15.685V17.8023H11.0006V22.3315ZM2.45563 10.2961H7.04452C7.42261 10.2961 7.72907 10.6026 7.72907 10.9807V15.5696C7.72907 15.9477 7.42261 16.2541 7.04452 16.2541H2.45563C2.07753 16.2541 1.77108 15.9477 1.77108 15.5696V10.9807C1.77904 10.6026 2.07753 10.2961 2.45563 10.2961ZM0.441774 18.6063H3.42276C3.66554 18.6063 3.86055 18.8013 3.86055 19.0441V22.033C3.86055 22.2758 3.66554 22.4708 3.42276 22.4708H0.441774C0.198997 22.4708 0 22.2758 0 22.033V19.0441C0 18.8093 0.198997 18.6063 0.441774 18.6063ZM23.2151 30.7093H20.6679C19.6689 30.7093 18.9247 30.98 18.4511 31.4814C17.9655 32.0068 17.7068 32.8585 17.7068 33.9888V36.7151C17.7068 37.8494 17.9575 38.6971 18.4511 39.2224C18.9247 39.7359 19.6689 39.9945 20.6679 39.9945H23.2151C23.7723 39.9945 24.23 40.4522 24.23 41.0094V47.3694C24.23 47.9266 23.7723 48.3843 23.2151 48.3843H20.6599C20.5604 48.3923 20.4331 48.3923 20.2898 48.4002C20.0709 48.4082 19.9236 48.4082 19.8679 48.4082C16.4332 48.4082 13.7109 47.4609 11.8324 45.6222C9.97774 43.8073 8.98673 41.1567 8.98673 37.73V29.7064C8.98673 29.1452 9.44443 28.6915 10.0016 28.6915H22.2161V24.3494H9.9857C9.42851 24.3494 8.97081 23.8956 8.97081 23.3384V16.7874C8.97081 16.2303 9.42851 15.7765 9.9857 15.7765H16.6919C17.2491 15.7765 17.7068 16.2303 17.7068 16.7874V22.3236H23.2151C23.7723 22.3236 24.23 22.7773 24.23 23.3384V29.6984C24.23 30.2636 23.7723 30.7093 23.2151 30.7093Z" fill="white"></path>
</g>
<mask id="mask1_19_1244" style="mask-type:luminance" maskUnits="userSpaceOnUse" x="109" y="0" width="44" height="49">
<path d="M109.803 0H152.086V48.6231H109.803V0Z" fill="white"></path>
</mask>
<g mask="url(#mask1_19_1244)">
<path d="M143.756 6.43558C138.996 2.16111 130.936 0 119.789 0C118.949 0 118.081 3.79558e-09 117.174 0.0596995C116.772 0.0676589 116.374 0.123379 115.992 0.238797C114.611 0.334316 113.556 1.09449 113.086 2.36011L113.023 2.57105C112.999 2.64269 112.967 2.71035 112.935 2.78995C112.895 2.88945 112.852 2.98496 112.82 3.06058L112.223 4.51327C110.054 9.91008 109.819 16.7397 109.819 19.4222V19.7565C109.906 25.4438 110.448 30.3869 111.486 34.8564C112.012 37.3121 112.668 39.6125 113.492 41.8691L113.54 41.9845C113.783 42.5895 118.041 48.6231 120.406 48.6231C120.8 48.6231 121.142 48.5594 121.416 48.5116C121.488 48.4957 121.58 48.4758 121.691 48.4599L121.739 48.4519C124.863 47.851 127.987 47.2938 130.889 46.7883L130.944 46.7804C132.067 46.5535 133.233 46.3147 134.367 46.1436L134.399 46.1356C136.206 45.8331 137.38 44.5476 137.38 42.8641C137.38 41.9049 136.958 41.2084 136.731 40.8423C136.699 40.7786 136.668 40.7189 136.632 40.6632C136.114 39.7398 135.645 38.8284 135.227 37.921C141.483 35.8116 146.458 32.4008 149.407 28.1661C151.131 25.6548 151.998 23.2549 152.07 20.851V20.4928C152.07 16.6919 145.069 7.60171 143.756 6.43558Z" fill="#D36F02"></path>
</g>
<mask id="mask2_19_1244" style="mask-type:luminance" maskUnits="userSpaceOnUse" x="109" y="0" width="41" height="45">
<path d="M109.803 0H149.029V44.7028H109.803V0Z" fill="white"></path>
</mask>
<g mask="url(#mask2_19_1244)">
<path d="M133.177 36.6275C132.66 35.7042 132.19 34.7888 131.768 33.8853C138.025 31.772 143.004 28.3611 145.949 24.1305C147.676 21.6151 148.54 19.2192 148.611 16.8113V16.4531C148.611 12.6682 146.98 9.30115 143.756 6.43558C138.996 2.16111 130.936 0 119.789 0C118.949 0 118.081 3.79558e-09 117.174 0.0596995C116.772 0.0676589 116.374 0.123379 115.992 0.238797C114.611 0.334316 113.556 1.09449 113.086 2.36011L113.023 2.57105C112.999 2.64269 112.967 2.71035 112.935 2.78995C112.895 2.88945 112.852 2.98496 112.82 3.06058L112.223 4.51327C110.054 9.91008 109.819 16.7397 109.819 19.4222V19.7565C109.906 25.4438 110.448 30.3869 111.486 34.8564C112.012 37.3121 112.668 39.6125 113.492 41.8691L113.54 41.9845C113.799 42.6293 114.579 44.6033 116.947 44.6033C117.345 44.6033 117.683 44.5396 117.962 44.4879C118.033 44.472 118.121 44.4561 118.236 44.4402L118.284 44.4322C121.408 43.8272 124.533 43.274 127.43 42.7686L127.486 42.7606C128.612 42.5298 129.778 42.295 130.913 42.1238L130.944 42.1159C132.747 41.8134 133.921 40.5239 133.921 38.8443C133.921 37.8812 133.5 37.1887 133.273 36.8225C133.241 36.7469 133.209 36.6912 133.177 36.6275Z" fill="#F5B820"></path>
</g>
<path d="M131.347 37.8176C131.331 37.7778 131.315 37.7341 131.291 37.7022C130.296 35.9391 129.472 34.1879 128.831 32.5084C135.713 30.6299 141.157 27.219 144.17 22.8888C145.642 20.7357 146.395 18.7298 146.45 16.7398V16.4373C146.45 13.3051 145.061 10.4833 142.323 8.05158C137.969 4.16317 130.383 2.18115 119.789 2.18115C118.973 2.18115 118.121 2.18115 117.273 2.23687C116.06 2.24483 115.558 2.92938 115.339 3.5025C115.331 3.53434 115.315 3.55822 115.315 3.59006C115.287 3.69751 115.232 3.82885 115.168 3.99203C115.136 4.07959 115.096 4.17113 115.065 4.25073L114.464 5.69545C112.374 10.8734 112.147 17.488 112.147 20.0989V20.4093C112.271 28.5404 113.337 35.1153 115.522 41.121L115.55 41.1767C115.785 41.7658 116.044 42.4264 116.947 42.4264C117.15 42.4264 117.345 42.3946 117.572 42.3429C117.659 42.3269 117.751 42.311 117.878 42.2871C121.042 41.6742 124.151 41.121 127.068 40.6156C128.214 40.3847 129.404 40.1419 130.594 39.9628C131.374 39.8315 131.76 39.4574 131.76 38.8365C131.76 38.4942 131.581 38.2077 131.438 37.9569C131.398 37.9052 131.374 37.8574 131.347 37.8176ZM130.328 20.2064C130.328 21.07 128.198 22.3595 126.435 23.0043C126.232 21.5993 126.185 20.2302 126.137 18.8174C126.32 18.7616 126.694 18.7139 127.43 18.7139C128.919 18.7218 130.328 19.4462 130.328 20.2064Z" fill="#D26002"></path>
<path d="M111.98 19.4221C111.98 15.068 112.569 9.45627 114.229 5.33701L114.822 3.90025C114.941 3.59778 115.056 3.36296 115.12 3.12416C115.299 2.64259 115.653 2.40777 116.302 2.40777C117.126 2.35205 117.962 2.35205 118.786 2.35205C127.374 2.35205 135.903 3.66543 140.763 8.0195C143.246 10.2284 144.616 12.7915 144.616 15.7764V16.0789C144.56 18.1087 143.668 20.0191 142.486 21.7464C139.29 26.3472 133.484 29.4476 127.494 31.0634C127.016 31.1868 126.849 31.2425 126.849 31.4216C126.849 31.545 126.905 31.6564 126.968 31.9032C127.681 33.8096 128.572 35.6643 129.575 37.4592C129.631 37.6383 129.934 37.9965 129.934 38.1756C129.934 38.3547 129.81 38.4104 129.456 38.4781C128.274 38.6572 127.084 38.892 125.902 39.1388C122.817 39.676 119.797 40.2133 116.72 40.8103C116.366 40.8661 116.131 40.9337 115.952 40.9337C115.598 40.9337 115.542 40.7546 115.299 40.1576C113.102 34.128 112.099 27.6208 111.98 19.7405V19.4221ZM124.298 17.9296V17.9853C124.354 19.7803 124.421 21.5673 124.776 23.4179C126.2 23.0597 130.168 21.3882 130.168 19.5375C130.168 18.1007 128.206 17.2132 126.435 17.2132C125.778 17.2132 124.298 17.2132 124.298 17.9296Z" fill="#FFF8E9"></path>
<path d="M44.8659 41.6865C44.9057 42.4307 44.9614 43.0795 45.0251 43.6287C45.0967 44.1819 45.1843 44.6555 45.2798 45.0456C45.3753 45.4833 45.4788 45.8575 45.5982 46.1759L41.5227 46.144C40.7984 46.0485 40.1855 45.754 39.676 45.2525C39.1745 44.7431 38.888 44.1182 38.8163 43.374C38.8163 43.4058 38.8163 43.2227 38.8163 42.8168C38.8163 42.4148 38.8044 41.9014 38.7845 41.2726C38.0522 42.2397 37.4194 43.0795 36.89 43.7879C36.3567 44.4884 35.8632 45.0217 35.4095 45.3799C35.0792 45.6346 34.7568 45.8177 34.4384 45.9211C34.12 46.0286 33.8334 46.1042 33.5787 46.144C33.2802 46.1838 32.9778 46.1958 32.6713 46.1759C32.0544 46.1759 31.533 46.0963 31.1112 45.9371C30.6853 45.7779 30.3191 45.5709 30.0127 45.3162C29.7142 45.0615 29.4714 44.7869 29.2804 44.4884C29.0973 44.1938 28.954 43.9073 28.8505 43.6287C28.6794 43.2387 28.5958 42.8446 28.5958 42.4506V30.4312C28.5719 30.1764 28.5003 29.9974 28.373 29.8899C28.2456 29.7745 28.158 29.6989 28.1182 29.667C27.9988 29.6272 27.9431 29.5357 27.9431 29.3964C27.9431 29.1655 28.0585 29.0461 28.2934 29.0461H31.6365C32.4962 29.0461 33.2205 29.3486 33.8175 29.9536C34.4105 30.5506 34.709 31.2709 34.709 32.1187V42.4506C34.709 42.57 34.7449 42.6695 34.8205 42.7531C34.8603 42.8287 34.92 42.8805 34.9956 42.9123C35.0792 42.9441 35.2185 42.9203 35.4095 42.8327C35.5448 42.7611 35.7677 42.5859 36.0781 42.3073C36.3846 42.0327 36.707 41.7342 37.0492 41.4158C37.3995 41.0895 37.7338 40.7751 38.0522 40.4766C38.3786 40.1821 38.6134 39.9632 38.7527 39.8239V29.0461H44.8659V41.6865Z" fill="white"></path>
<path d="M62.9259 37.9293C63.7736 37.9293 64.494 38.2318 65.091 38.8367C65.6959 39.4337 65.9984 40.1541 65.9984 41.0018C65.9984 41.1849 65.9705 41.4396 65.9188 41.766C65.875 42.0844 65.7676 42.4346 65.6004 42.8167C65.4293 43.1908 65.1706 43.5768 64.8203 43.9788C64.4781 44.3848 64.0005 44.743 63.3876 45.0614C62.7826 45.3718 62.0184 45.6305 61.0951 45.8414C60.1717 46.0444 59.0653 46.1439 57.7838 46.1439C57.0395 46.1439 56.355 46.1081 55.7301 46.0325C55.1132 45.9489 54.5521 45.8494 54.0426 45.73C52.8964 45.4355 52.0208 45.0455 51.4159 44.5679C50.8189 44.0823 50.397 43.5928 50.1423 43.1032C49.8438 42.554 49.6846 41.9689 49.6647 41.3521L49.6328 36.0667C49.1234 35.995 48.7135 36.0309 48.407 36.1781C48.0966 36.3294 47.8419 36.5045 47.6429 36.7035C47.4518 36.8945 47.2966 37.0776 47.1812 37.2447C47.0618 37.4039 46.9464 37.4835 46.8309 37.4835C46.5762 37.4517 46.3573 37.3243 46.1782 37.1015C45.9952 36.8706 46.0429 36.4408 46.3215 35.812C46.5006 35.3781 46.7354 35.0558 47.022 34.8409C47.3085 34.618 47.5473 34.4588 47.7384 34.3633C47.7782 34.3434 47.81 34.3314 47.8339 34.3314C47.8538 34.3314 47.8896 34.3235 47.9453 34.2996C47.9851 34.2996 48.017 34.2916 48.0409 34.2677C48.6339 34.0369 49.1632 33.8697 49.6328 33.7742V25.4959C49.6328 25.2014 49.5612 24.9865 49.4259 24.8591C49.2866 24.7318 49.1911 24.6601 49.1393 24.6363C49.0319 24.5845 48.9801 24.489 48.9801 24.3497C48.9801 24.1268 49.0916 24.0154 49.3144 24.0154H52.7054C53.1193 24.0154 53.5053 24.095 53.8675 24.2542C54.2376 24.4134 54.56 24.6323 54.8386 24.9069C55.1132 25.1855 55.3321 25.5118 55.4913 25.8939C55.6585 26.276 55.746 26.674 55.746 27.0879V33.615C56.1998 33.5832 56.542 33.4956 56.7649 33.3444C56.9957 33.1971 57.1709 33.034 57.2903 32.8509C57.4057 32.6399 57.4893 32.421 57.545 32.1982L57.5768 30.3992C57.5768 29.5515 57.8674 28.8311 58.4524 28.2341C59.0335 27.6292 59.7578 27.3267 60.6175 27.3267C61.4652 27.3267 62.1856 27.6292 62.7826 28.2341C63.3876 28.8311 63.69 29.5515 63.69 30.3992C63.69 30.4629 63.6781 30.5385 63.6582 30.6221C63.6462 30.7097 63.6423 30.7813 63.6423 30.845C63.6184 31.0281 63.5388 31.3703 63.4035 31.8798C63.2642 32.3892 62.9299 32.9106 62.4005 33.4399C61.8672 33.9732 61.0792 34.4508 60.0285 34.8727C58.9857 35.2985 57.5609 35.5214 55.746 35.5413L55.7779 42.8008C55.7978 43.0794 55.8774 43.3181 56.0167 43.5171C56.1321 43.7082 56.3271 43.8753 56.6057 44.0107C56.8803 44.15 57.2823 44.2176 57.8156 44.2176C58.3251 44.2176 58.723 44.15 59.0096 44.0107C59.2962 43.8753 59.4952 43.7082 59.6146 43.5171C59.7499 43.3181 59.8295 43.0873 59.8534 42.8326L59.8852 41.0018C59.8852 40.1541 60.1757 39.4337 60.7608 38.8367C61.3538 38.2318 62.0742 37.9293 62.9259 37.9293Z" fill="white"></path>
<path d="M84.0889 41.384C84.0889 41.4716 84.0331 41.7661 83.9297 42.2755C83.8222 42.785 83.5078 43.3262 82.9904 43.8993C82.481 44.4725 81.673 44.9938 80.5706 45.4595C79.4641 45.9172 77.9199 46.144 75.9379 46.144C74.0474 46.144 72.5629 45.9371 71.4804 45.5232C70.3978 45.1092 69.5859 44.6317 69.0446 44.0904C68.5034 43.5491 68.1571 43.0198 68.0098 42.4984C67.8586 41.981 67.787 41.6308 67.787 41.4477C67.787 41.4079 67.779 41.3203 67.771 41.193C67.7591 41.0656 67.7551 40.7273 67.7551 40.1741C67.7551 39.6249 67.7551 38.7811 67.7551 37.6429C67.7551 36.4966 67.7551 34.9007 67.7551 32.851C67.775 31.9834 68.0894 31.1874 68.6944 30.463C68.9372 30.1685 69.2556 29.874 69.6496 29.5874C70.0396 29.3009 70.5252 29.0422 71.0983 28.8074C71.6794 28.5765 72.3599 28.3895 73.136 28.2502C73.9201 28.1149 74.8315 28.0432 75.8742 28.0432C77.7607 28.0432 79.2492 28.2581 80.3318 28.68C81.4143 29.0939 82.2183 29.5715 82.7516 30.1128C83.2929 30.6461 83.6351 31.1635 83.7864 31.6729C83.9456 32.1824 84.0331 32.5286 84.057 32.7077L84.0889 41.384ZM75.9061 44.2177C76.4155 44.2177 76.8135 44.1501 77.1001 44.0108C77.3866 43.8755 77.5856 43.7083 77.705 43.5173C77.8403 43.3183 77.9199 43.0795 77.9438 42.8009V31.3705C77.9199 31.1157 77.8403 30.8849 77.705 30.67C77.5856 30.4909 77.3866 30.3317 77.1001 30.1924C76.8135 30.0571 76.4155 29.9854 75.9061 29.9854C75.3728 29.9854 74.9708 30.0571 74.6962 30.1924C74.4176 30.3317 74.2225 30.4909 74.1071 30.67C73.9678 30.8849 73.8882 31.1157 73.8683 31.3705L73.9002 42.8327C73.9201 43.0874 73.9997 43.3183 74.139 43.5173C74.2544 43.7083 74.4494 43.8755 74.728 44.0108C75.0026 44.1501 75.3966 44.2177 75.9061 44.2177Z" fill="white"></path>
<path d="M103.041 32.7393C103.041 33.1333 102.965 33.5194 102.818 33.9015C102.666 34.2835 102.46 34.6179 102.197 34.9044C101.93 35.191 101.608 35.4258 101.226 35.6049C100.852 35.776 100.446 35.8596 99.9999 35.8596C99.586 35.8596 99.188 35.78 98.8059 35.6208C98.4318 35.4537 98.1094 35.2308 97.8348 34.9522C97.5562 34.6776 97.3333 34.3592 97.1662 33.997C97.007 33.6269 96.9274 33.2328 96.9274 32.8189V32.7393C96.9274 32.6358 96.8955 32.5324 96.8319 32.4369C96.7761 32.3652 96.7045 32.3095 96.609 32.2777C96.5214 32.2458 96.402 32.2777 96.2428 32.3732C96.0836 32.4607 95.821 32.6597 95.4628 32.9781C95.1125 33.2886 94.7464 33.6149 94.3643 33.9652C93.9822 34.3074 93.632 34.6258 93.3136 34.9203C93.0032 35.2188 92.8201 35.4059 92.7564 35.4775V45.0772C92.7763 45.2802 92.8241 45.4513 92.8997 45.5866C92.9395 45.7259 93.0032 45.8493 93.0907 45.9528C93.1862 46.0602 93.3136 46.112 93.4728 46.112H86.6432V30.4946C86.6432 30.2001 86.5716 29.9852 86.4362 29.8578C86.2969 29.7305 86.2054 29.6588 86.1656 29.635C86.0462 29.5952 85.9905 29.5036 85.9905 29.3643C85.9905 29.1335 86.1019 29.0141 86.3248 29.0141H89.7157C90.1296 29.0141 90.5157 29.1017 90.8779 29.2688C91.248 29.428 91.5704 29.6469 91.849 29.9215C92.1236 30.2001 92.3425 30.5265 92.5017 30.9085C92.6688 31.2827 92.7564 31.6727 92.7564 32.0866V34.0607C93.5086 33.0418 94.1613 32.1742 94.7145 31.4498C95.2757 30.7295 95.7851 30.1842 96.2428 29.8101C96.5612 29.5554 96.8796 29.3802 97.198 29.2847C97.5244 29.1812 97.8189 29.1017 98.0736 29.0459C98.3681 29.0061 98.6666 28.9942 98.9651 29.0141C99.59 29.0141 100.119 29.1017 100.557 29.2688C100.991 29.428 101.357 29.635 101.656 29.8897C101.962 30.1364 102.201 30.4111 102.372 30.7175C102.539 31.016 102.682 31.3026 102.802 31.5772C102.873 31.7603 102.933 31.9433 102.977 32.1344C103.017 32.3175 103.041 32.5165 103.041 32.7393Z" fill="white"></path>
<path d="M164.689 41.384C164.689 41.4716 164.633 41.7661 164.53 42.2755C164.423 42.785 164.108 43.3262 163.591 43.8993C163.081 44.4725 162.273 44.9938 161.171 45.4595C160.064 45.9172 158.52 46.144 156.538 46.144C154.648 46.144 153.163 45.9371 152.081 45.5232C150.998 45.1092 150.186 44.6317 149.645 44.0904C149.104 43.5491 148.757 43.0198 148.61 42.4984C148.459 41.981 148.387 41.6308 148.387 41.4477C148.387 41.4079 148.379 41.3203 148.371 41.193C148.359 41.0656 148.355 40.7273 148.355 40.1741C148.355 39.6249 148.355 38.7811 148.355 37.6429C148.355 36.4966 148.355 34.9007 148.355 32.851C148.375 31.9834 148.69 31.1874 149.295 30.463C149.538 30.1685 149.856 29.874 150.25 29.5874C150.64 29.3009 151.126 29.0422 151.699 28.8074C152.28 28.5765 152.96 28.3895 153.736 28.2502C154.52 28.1149 155.432 28.0432 156.475 28.0432C158.361 28.0432 159.85 28.2581 160.932 28.68C162.015 29.0939 162.819 29.5715 163.352 30.1128C163.893 30.6461 164.235 31.1635 164.387 31.6729C164.546 32.1824 164.633 32.5286 164.657 32.7077L164.689 41.384ZM156.506 44.2177C157.016 44.2177 157.414 44.1501 157.7 44.0108C157.987 43.8755 158.186 43.7083 158.305 43.5173C158.441 43.3183 158.52 43.0795 158.544 42.8009V31.3705C158.52 31.1157 158.441 30.8849 158.305 30.67C158.186 30.4909 157.987 30.3317 157.7 30.1924C157.414 30.0571 157.016 29.9854 156.506 29.9854C155.973 29.9854 155.571 30.0571 155.297 30.1924C155.018 30.3317 154.823 30.4909 154.707 30.67C154.568 30.8849 154.489 31.1157 154.469 31.3705L154.501 42.8327C154.52 43.0874 154.6 43.3183 154.739 43.5173C154.855 43.7083 155.05 43.8755 155.328 44.0108C155.603 44.1501 155.997 44.2177 156.506 44.2177Z" fill="white"></path>
<path d="M169.934 28.5365C169.082 28.5365 168.358 28.242 167.753 27.645C167.156 27.0401 166.861 26.3157 166.861 25.464C166.861 24.6163 167.156 23.8999 167.753 23.3148C168.358 22.7218 169.082 22.4233 169.934 22.4233C170.762 22.4233 171.47 22.7218 172.067 23.3148C172.672 23.8999 172.975 24.6163 172.975 25.464C172.975 25.8779 172.895 26.2759 172.736 26.658C172.577 27.0321 172.358 27.3545 172.083 27.6291C171.804 27.9077 171.482 28.1306 171.112 28.2977C170.738 28.4569 170.348 28.5365 169.934 28.5365ZM172.943 45.1409C172.963 45.3558 173.01 45.5309 173.086 45.6663C173.126 45.7737 173.189 45.8812 173.277 45.9847C173.373 46.0921 173.5 46.1439 173.659 46.1439H166.829V30.638C166.829 30.3434 166.758 30.1285 166.623 30.0012C166.483 29.8738 166.392 29.8022 166.352 29.7783C166.232 29.7067 166.177 29.6151 166.177 29.5077C166.177 29.2768 166.276 29.1574 166.479 29.1574H169.902C170.316 29.1574 170.702 29.237 171.064 29.3962C171.434 29.5554 171.757 29.7743 172.035 30.0489C172.31 30.3275 172.529 30.6539 172.688 31.036C172.855 31.418 172.943 31.816 172.943 32.2299V45.1409Z" fill="white"></path>
<path d="M191.89 40.763C191.89 41.7938 191.914 42.6495 191.97 43.326C192.034 44.0066 192.113 44.5638 192.209 44.9976C192.304 45.5071 192.42 45.913 192.559 46.2075H190.521C190.012 46.2075 189.542 46.1996 189.12 46.1916C188.694 46.1797 188.492 46.1757 188.515 46.1757C187.771 46.0802 187.146 45.7857 186.637 45.2842C186.135 44.7747 185.849 44.1539 185.777 43.4216V34.0926C185.733 33.6587 185.654 33.3443 185.538 33.1533C185.419 32.9543 185.284 32.8349 185.124 32.8031C184.965 32.7633 184.814 32.7712 184.679 32.8349C184.539 32.8906 184.44 32.9424 184.376 32.9941C184.141 33.1971 183.891 33.4199 183.628 33.6627C183.361 33.9095 183.103 34.1523 182.848 34.395C182.593 34.6299 182.358 34.8487 182.147 35.0477C181.944 35.2388 181.801 35.3821 181.718 35.4776V45.523C181.757 45.6822 181.821 45.8334 181.909 45.9687C182.004 46.108 182.147 46.1757 182.339 46.1757H175.604V30.5743C175.604 30.2798 175.533 30.0648 175.397 29.9375C175.258 29.8101 175.163 29.7385 175.111 29.7146H175.079C174.984 29.6629 174.936 29.5673 174.936 29.4281C174.936 29.2052 175.039 29.0937 175.254 29.0937H178.629C179.489 29.0937 180.213 29.3922 180.81 29.9852C181.415 30.5822 181.718 31.3066 181.718 32.1663V33.997C182.45 33.0219 183.087 32.1822 183.628 31.4817C184.169 30.7812 184.667 30.2479 185.124 29.8738C185.419 29.631 185.729 29.4559 186.048 29.3485C186.374 29.245 186.669 29.1694 186.923 29.1256C187.218 29.0738 187.516 29.0619 187.815 29.0937C188.44 29.0937 188.969 29.1733 189.407 29.3325C189.841 29.4917 190.207 29.6987 190.505 29.9534C190.812 30.2081 191.051 30.4867 191.222 30.7812C191.389 31.0797 191.532 31.3663 191.652 31.6409C191.723 31.824 191.783 32.0071 191.827 32.1981C191.867 32.3812 191.89 32.5881 191.89 32.819V40.763Z" fill="white"></path>
<path d="M210.266 37.9293C211.114 37.9293 211.835 38.2318 212.432 38.8367C213.036 39.4337 213.339 40.1541 213.339 41.0018C213.339 41.1849 213.311 41.4396 213.259 41.766C213.216 42.0844 213.108 42.4346 212.941 42.8167C212.77 43.1908 212.511 43.5768 212.161 43.9788C211.819 44.3848 211.341 44.743 210.728 45.0614C210.123 45.3718 209.359 45.6305 208.436 45.8414C207.512 46.0444 206.406 46.1439 205.124 46.1439C204.38 46.1439 203.696 46.1081 203.071 46.0325C202.454 45.9489 201.893 45.8494 201.383 45.73C200.237 45.4355 199.361 45.0455 198.756 44.5679C198.159 44.0823 197.738 43.5928 197.483 43.1032C197.184 42.554 197.025 41.9689 197.005 41.3521L196.973 36.0667C196.464 35.995 196.054 36.0309 195.748 36.1781C195.437 36.3294 195.182 36.5045 194.983 36.7035C194.792 36.8945 194.637 37.0776 194.522 37.2447C194.402 37.4039 194.287 37.4835 194.172 37.4835C193.917 37.4517 193.698 37.3243 193.519 37.1015C193.336 36.8706 193.383 36.4408 193.662 35.812C193.841 35.3781 194.076 35.0558 194.363 34.8409C194.649 34.618 194.888 34.4588 195.079 34.3633C195.119 34.3434 195.151 34.3314 195.174 34.3314C195.194 34.3314 195.23 34.3235 195.286 34.2996C195.326 34.2996 195.358 34.2916 195.381 34.2677C195.974 34.0369 196.504 33.8697 196.973 33.7742V25.4959C196.973 25.2014 196.902 24.9865 196.766 24.8591C196.627 24.7318 196.532 24.6601 196.48 24.6363C196.372 24.5845 196.321 24.489 196.321 24.3497C196.321 24.1268 196.432 24.0154 196.655 24.0154H200.046C200.46 24.0154 200.846 24.095 201.208 24.2542C201.578 24.4134 201.901 24.6323 202.179 24.9069C202.454 25.1855 202.673 25.5118 202.832 25.8939C202.999 26.276 203.087 26.674 203.087 27.0879V33.615C203.54 33.5832 203.883 33.4956 204.105 33.3444C204.336 33.1971 204.511 33.034 204.631 32.8509C204.746 32.6399 204.83 32.421 204.886 32.1982L204.917 30.3992C204.917 29.5515 205.208 28.8311 205.793 28.2341C206.374 27.6292 207.098 27.3267 207.958 27.3267C208.806 27.3267 209.526 27.6292 210.123 28.2341C210.728 28.8311 211.031 29.5515 211.031 30.3992C211.031 30.4629 211.019 30.5385 210.999 30.6221C210.987 30.7097 210.983 30.7813 210.983 30.845C210.959 31.0281 210.879 31.3703 210.744 31.8798C210.605 32.3892 210.27 32.9106 209.741 33.4399C209.208 33.9732 208.42 34.4508 207.369 34.8727C206.326 35.2985 204.901 35.5214 203.087 35.5413L203.118 42.8008C203.138 43.0794 203.218 43.3181 203.357 43.5171C203.473 43.7082 203.668 43.8753 203.946 44.0107C204.221 44.15 204.623 44.2176 205.156 44.2176C205.666 44.2176 206.064 44.15 206.35 44.0107C206.637 43.8753 206.836 43.7082 206.955 43.5171C207.09 43.3181 207.17 43.0873 207.194 42.8326L207.226 41.0018C207.226 40.1541 207.516 39.4337 208.101 38.8367C208.694 38.2318 209.415 37.9293 210.266 37.9293Z" fill="white"></path>
</svg></svg></g></g><defs><clipPath id="SvgjsClipPath1142"><rect width="1000" height="1000" x="0" y="0" rx="350" ry="350"></rect></clipPath></defs></svg>