<svg width="24" height="24" viewBox="0 0 24 24" fill="none" xmlns="http://www.w3.org/2000/svg">
<path fill-rule="evenodd" clip-rule="evenodd" d="M9.59199 3.20009C9.43416 3.34174 9.26893 3.47493 9.09699 3.59909C8.79899 3.79909 8.46399 3.93709 8.11199 4.00709C7.95899 4.03709 7.79899 4.05009 7.47999 4.07509C6.67899 4.13909 6.27799 4.17109 5.94399 4.28909C5.56199 4.42374 5.21502 4.6423 4.92861 4.92871C4.64221 5.21512 4.42364 5.56208 4.28899 5.94409C4.17099 6.27809 4.13899 6.67909 4.07499 7.48009C4.06351 7.69181 4.04081 7.90277 4.00699 8.11209C3.93699 8.46409 3.79899 8.79909 3.59899 9.09709C3.51199 9.22709 3.40799 9.34909 3.19999 9.59209C2.67899 10.2041 2.41799 10.5101 2.26499 10.8301C1.91199 11.5701 1.91199 12.4301 2.26499 13.1701C2.41799 13.4901 2.67899 13.7961 3.19999 14.4081C3.40799 14.6511 3.51199 14.7731 3.59899 14.9031C3.79899 15.2011 3.93699 15.5361 4.00699 15.8881C4.03699 16.0411 4.04999 16.2011 4.07499 16.5201C4.13899 17.3211 4.17099 17.7221 4.28899 18.0561C4.42364 18.4381 4.64221 18.7851 4.92861 19.0715C5.21502 19.3579 5.56199 19.5764 5.94399 19.7111C6.27799 19.8291 6.67899 19.8611 7.47999 19.9251C7.79899 19.9501 7.95899 19.9631 8.11199 19.9931C8.46399 20.0631 8.79899 20.2021 9.09699 20.4011C9.22699 20.4881 9.34899 20.5921 9.59199 20.8001C10.204 21.3211 10.51 21.5821 10.83 21.7351C11.57 22.0881 12.43 22.0881 13.17 21.7351C13.49 21.5821 13.796 21.3211 14.408 20.8001C14.651 20.5921 14.773 20.4881 14.903 20.4011C15.201 20.2011 15.536 20.0631 15.888 19.9931C16.041 19.9631 16.201 19.9501 16.52 19.9251C17.321 19.8611 17.722 19.8291 18.056 19.7111C18.438 19.5764 18.785 19.3579 19.0714 19.0715C19.3578 18.7851 19.5763 18.4381 19.711 18.0561C19.829 17.7221 19.861 17.3211 19.925 16.5201C19.95 16.2011 19.963 16.0411 19.993 15.8881C20.063 15.5361 20.202 15.2011 20.401 14.9031C20.488 14.7731 20.592 14.6511 20.8 14.4081C21.321 13.7961 21.582 13.4901 21.735 13.1701C22.088 12.4301 22.088 11.5701 21.735 10.8301C21.582 10.5101 21.321 10.2041 20.8 9.59209C20.6583 9.43426 20.5252 9.26903 20.401 9.09709C20.2009 8.79914 20.0622 8.46428 19.993 8.11209C19.9592 7.90277 19.9365 7.69181 19.925 7.48009C19.861 6.67909 19.829 6.27809 19.711 5.94409C19.5763 5.56208 19.3578 5.21512 19.0714 4.92871C18.785 4.6423 18.438 4.42374 18.056 4.28909C17.722 4.17109 17.321 4.13909 16.52 4.07509C16.3083 4.06361 16.0973 4.04091 15.888 4.00709C15.5358 3.93791 15.2009 3.79921 14.903 3.59909C14.7311 3.47493 14.5658 3.34174 14.408 3.20009C13.796 2.67909 13.49 2.41809 13.17 2.26509C12.8047 2.09026 12.4049 1.99951 12 1.99951C11.5951 1.99951 11.1953 2.09026 10.83 2.26509C10.51 2.41809 10.204 2.67909 9.59199 3.20009ZM16.373 9.86309C16.5143 9.7084 16.5906 9.50516 16.5858 9.29568C16.5811 9.0862 16.4958 8.88661 16.3476 8.73845C16.1995 8.59028 15.9999 8.50496 15.7904 8.50024C15.5809 8.49552 15.3777 8.57175 15.223 8.71309L10.373 13.5631L8.77699 11.9681C8.6223 11.8268 8.41907 11.7505 8.20959 11.7552C8.00011 11.76 7.80051 11.8453 7.65235 11.9934C7.50419 12.1416 7.41887 12.3412 7.41414 12.5507C7.40942 12.7602 7.48566 12.9634 7.62699 13.1181L9.79699 15.2881C9.9496 15.4404 10.1564 15.5259 10.372 15.5259C10.5876 15.5259 10.7944 15.4404 10.947 15.2881L16.373 9.86309Z" fill="black"/>
</svg>
